<svg width="77" height="44" viewBox="0 0 77 44" fill="none" xmlns="http://www.w3.org/2000/svg">
<g clip-path="url(#clip0)">
<path d="M54.9516 16.0076L54.7446 15.8267L54.9516 16.0076Z" fill="white"/>
<path d="M73.4067 30.6083C73.4067 37.1396 68.2733 42.4535 61.956 42.4535H15.0109C8.70182 42.4535 3.56021 37.1396 3.56021 30.6083V25.9607H2.06989V30.6083C2.06989 37.9951 7.87386 44.0082 15.0191 44.0082H61.9643C69.1013 44.0082 74.9135 37.9951 74.9135 30.6083V25.9607H73.4149V30.6083H73.4067Z" fill="white"/>
<path d="M3.56849 13.3999C3.56849 6.86857 8.70182 1.55468 15.0191 1.55468H61.9643C68.2733 1.55468 73.4149 6.86857 73.4149 13.3999V19.2814H74.9135V13.3999C74.9053 6.01309 69.1013 0 61.956 0H15.0109C7.87386 0 2.06989 6.01309 2.06989 13.3999V19.2814H3.56849V13.3999Z" fill="white"/>
<path d="M11.0367 33.5121C10.6889 33.5038 10.4074 33.2159 10.4157 32.8705V11.1378C10.4074 10.8252 10.631 10.5702 10.929 10.5044L9.30622 10.6936C8.46171 10.8581 7.86558 11.5984 7.87386 12.4539V31.7271C7.8573 32.6977 8.6273 33.4956 9.59601 33.5121H11.0946H11.0367Z" fill="white"/>
<path d="M23.6796 27.2193L20.0779 24.3156C19.962 24.2251 19.8213 24.1758 19.6722 24.184C19.3328 24.2004 19.0678 24.4801 19.0761 24.8256V25.6235L22.7522 28.6013C22.8764 28.7 23.0503 28.6835 23.1579 28.5683L24.4992 27.17C24.284 27.3921 23.9279 27.4167 23.6796 27.2193Z" fill="white"/>
<path d="M27.6785 32.8705V25.4426C27.6868 25.2699 27.6205 25.0971 27.4963 24.982C27.2562 24.7434 26.8588 24.7517 26.627 24.9902L25.857 25.7799V33.1502C25.857 33.3476 26.0143 33.5122 26.213 33.5204H28.4319H28.2995C27.9434 33.5039 27.6702 33.216 27.6785 32.8705Z" fill="white"/>
<path d="M54.877 27.2932L51.9129 24.99C51.797 24.9077 51.6562 24.8584 51.5154 24.8666C51.176 24.8831 50.911 25.1627 50.9193 25.5082V26.1827L54.0904 28.5353C54.2312 28.634 54.4216 28.6094 54.5375 28.486L55.6966 27.2439C55.4731 27.4577 55.1253 27.4824 54.877 27.2932Z" fill="white"/>
<path d="M59.0748 32.8704V25.278C59.083 25.1053 59.0168 24.9325 58.8926 24.8091C58.6525 24.5706 58.2551 24.5788 58.0233 24.8174L56.5909 26.3062C56.5909 26.372 56.5909 26.4378 56.5909 26.5201V32.9774C56.5826 33.2653 56.8145 33.5038 57.1125 33.5121H60.5237H59.6957C59.348 33.5038 59.0748 33.2159 59.0748 32.8704Z" fill="white"/>
<path d="M54.9515 16.0076C55.1833 16.2133 55.5393 16.2133 55.7711 15.9994L61.4923 10.6608C61.5668 10.595 61.6496 10.5457 61.7407 10.521L59.5963 10.8254C59.381 10.8583 59.1823 10.957 59.025 11.0968L54.2808 15.4154L54.7362 15.8267L54.9515 16.0076Z" fill="white"/>
<path d="M23.4064 15.9499C23.6465 16.1802 24.0274 16.172 24.2592 15.9335L29.5002 10.6689C29.583 10.5867 29.6906 10.5291 29.7982 10.5044L28.0264 10.7841C27.778 10.8252 27.5545 10.9404 27.3723 11.1213L22.9014 15.4317L23.3816 15.9335C23.3899 15.9335 23.3981 15.9417 23.4064 15.9499Z" fill="white"/>
<path d="M0.33947 23.493C0.14904 23.5012 -0.00827216 23.6575 7.40969e-06 23.8467C7.40969e-06 23.8549 7.40969e-06 23.8549 7.40969e-06 23.8632C0.00828698 24.0606 0.173878 24.2087 0.372588 24.2004C0.571298 24.1922 0.72033 24.0277 0.71205 23.8303C0.703771 23.6328 0.53818 23.4848 0.33947 23.493Z" fill="white"/>
<path d="M1.16741 23.493C0.976981 23.5012 0.81967 23.6575 0.827949 23.8467C0.827949 23.8549 0.827949 23.8549 0.827949 23.8632C0.836229 24.0606 1.00182 24.2087 1.20053 24.2004C1.39924 24.1922 1.54827 24.0277 1.53999 23.8303C1.52343 23.6328 1.35784 23.4848 1.16741 23.493Z" fill="white"/>
<path d="M2.35963 23.8303C2.35135 23.6328 2.18576 23.4848 1.98705 23.493C1.79662 23.5012 1.63931 23.6575 1.64759 23.8467C1.64759 23.8549 1.64759 23.8549 1.64759 23.8632C1.65587 24.0606 1.82146 24.2087 2.02017 24.2004C2.21888 24.1922 2.36791 24.0277 2.35963 23.8303Z" fill="white"/>
<path d="M2.815 23.493C2.62456 23.5012 2.46725 23.6575 2.47553 23.8467C2.47553 23.8549 2.47553 23.8549 2.47553 23.8632C2.48381 24.0606 2.6494 24.2087 2.84811 24.2004C3.04682 24.1922 3.19586 24.0277 3.18758 23.8303C3.1793 23.6328 3.01371 23.4848 2.815 23.493Z" fill="white"/>
<path d="M3.63476 23.493C3.44433 23.5012 3.28702 23.6575 3.2953 23.8467C3.2953 23.8549 3.2953 23.8549 3.2953 23.8632C3.30358 24.0606 3.46917 24.2087 3.66788 24.2004C3.86658 24.1922 4.01562 24.0277 4.00734 23.8303C3.99906 23.6328 3.83347 23.4848 3.63476 23.493Z" fill="white"/>
<path d="M4.4627 23.493C4.27227 23.5012 4.11496 23.6575 4.12324 23.8467C4.12324 23.8549 4.12324 23.8549 4.12324 23.8632C4.13152 24.0606 4.29711 24.2087 4.49582 24.2004C4.69453 24.1922 4.84356 24.0277 4.83528 23.8303C4.827 23.6328 4.66141 23.4848 4.4627 23.493Z" fill="white"/>
<path d="M4.94287 23.8467C4.94287 23.8549 4.94287 23.8549 4.94287 23.8632C4.95115 24.0606 5.11674 24.2087 5.31545 24.2004C5.51416 24.1922 5.66319 24.0277 5.65492 23.8303C5.64664 23.6328 5.48104 23.4848 5.28233 23.493C5.0919 23.493 4.94287 23.6575 4.94287 23.8467Z" fill="white"/>
<path d="M1.16741 22.6785C0.976981 22.6868 0.81967 22.8431 0.827949 23.0322C0.827949 23.0405 0.827949 23.0405 0.827949 23.0487C0.836229 23.2461 1.00182 23.3942 1.20053 23.3859C1.39924 23.3777 1.54827 23.2132 1.53999 23.0158C1.52343 22.8184 1.35784 22.6703 1.16741 22.6785Z" fill="white"/>
<path d="M2.02017 23.386C2.21888 23.3778 2.36791 23.2132 2.35963 23.0158C2.35135 22.8184 2.18576 22.6703 1.98705 22.6785C1.79662 22.6868 1.63931 22.8431 1.64759 23.0323C1.64759 23.0405 1.64759 23.0405 1.64759 23.0487C1.65587 23.2379 1.82146 23.3942 2.02017 23.386Z" fill="white"/>
<path d="M2.815 22.6785C2.62456 22.6868 2.46725 22.8431 2.47553 23.0322C2.47553 23.0405 2.47553 23.0405 2.47553 23.0487C2.48381 23.2461 2.6494 23.3942 2.84811 23.3859C3.04682 23.3777 3.19586 23.2132 3.18758 23.0158C3.1793 22.8184 3.01371 22.6703 2.815 22.6785Z" fill="white"/>
<path d="M3.63476 22.6785C3.44433 22.6868 3.28702 22.8431 3.2953 23.0322C3.2953 23.0405 3.2953 23.0405 3.2953 23.0487C3.30358 23.2461 3.46917 23.3942 3.66788 23.3859C3.86658 23.3777 4.01562 23.2132 4.00734 23.0158C3.99906 22.8184 3.83347 22.6703 3.63476 22.6785Z" fill="white"/>
<path d="M4.4627 22.6785C4.27227 22.6868 4.11496 22.8431 4.12324 23.0322C4.12324 23.0405 4.12324 23.0405 4.12324 23.0487C4.13152 23.2461 4.29711 23.3942 4.49582 23.3859C4.69453 23.3777 4.84356 23.2132 4.83528 23.0158C4.827 22.8184 4.66141 22.6703 4.4627 22.6785Z" fill="white"/>
<path d="M2.02017 22.5635C2.21888 22.5552 2.36791 22.3907 2.35963 22.1933C2.35135 21.9959 2.18576 21.8478 1.98705 21.856C1.79662 21.8643 1.63931 22.0206 1.64759 22.2098C1.64759 22.218 1.64759 22.218 1.64759 22.2262C1.65587 22.4236 1.82146 22.5717 2.02017 22.5635Z" fill="white"/>
<path d="M2.815 21.856C2.62456 21.8642 2.46725 22.0205 2.47553 22.2097C2.47553 22.218 2.47553 22.218 2.47553 22.2262C2.48381 22.4236 2.6494 22.5717 2.84811 22.5634C3.04682 22.5552 3.19586 22.3907 3.18758 22.1933C3.1793 22.0041 3.01371 21.8478 2.815 21.856Z" fill="white"/>
<path d="M3.63475 22.5634C3.82223 22.5634 3.97421 22.405 3.97421 22.2097C3.97421 22.0143 3.82223 21.856 3.63475 21.856C3.44727 21.856 3.29529 22.0143 3.29529 22.2097C3.29529 22.405 3.44727 22.5634 3.63475 22.5634Z" fill="white"/>
<path d="M2.83993 21.749C3.03864 21.7408 3.18768 21.5763 3.1794 21.3788C3.17112 21.1814 3.00553 21.0334 2.80682 21.0416C2.61639 21.0498 2.45907 21.2061 2.46735 21.3953C2.46735 21.4035 2.46735 21.4035 2.46735 21.4117C2.48391 21.6092 2.6495 21.7572 2.83993 21.749Z" fill="white"/>
<path d="M71.3451 21.3297C71.3451 21.3379 71.3451 21.3379 71.3451 21.3461C71.3451 21.5353 71.4941 21.6916 71.6846 21.6998C71.8833 21.708 72.0489 21.56 72.0571 21.3626C72.0654 21.1651 71.9164 21.0006 71.7177 20.9924C71.519 20.9759 71.3534 21.1322 71.3451 21.3297Z" fill="white"/>
<path d="M72.5373 20.9842C72.3386 20.976 72.173 21.1241 72.1647 21.3215C72.1647 21.3297 72.1647 21.3297 72.1647 21.3379C72.1647 21.5271 72.3138 21.6834 72.5042 21.6916C72.7029 21.6999 72.8685 21.5518 72.8768 21.3544C72.8851 21.157 72.736 20.9924 72.5373 20.9842Z" fill="white"/>
<path d="M73.3653 20.9842C73.1665 20.976 73.001 21.1241 72.9927 21.3215C72.9927 21.3297 72.9927 21.3297 72.9927 21.3379C72.9927 21.5271 73.1417 21.6834 73.3321 21.6916C73.5308 21.6999 73.6964 21.5518 73.7047 21.3544C73.713 21.157 73.5557 20.9924 73.3653 20.9842Z" fill="white"/>
<path d="M74.185 20.9842C73.9862 20.976 73.8207 21.1241 73.8124 21.3215C73.8124 21.3297 73.8124 21.3297 73.8124 21.3379C73.8124 21.5271 73.9614 21.6834 74.1518 21.6916C74.3505 21.6999 74.5161 21.5518 74.5244 21.3544C74.5327 21.157 74.3837 20.9924 74.185 20.9842Z" fill="white"/>
<path d="M75.0129 20.9842C74.8142 20.976 74.6486 21.1241 74.6403 21.3215C74.6403 21.3297 74.6403 21.3297 74.6403 21.3379C74.6403 21.5271 74.7893 21.6834 74.9798 21.6916C75.1785 21.6999 75.3441 21.5518 75.3523 21.3544C75.3606 21.157 75.2033 20.9924 75.0129 20.9842Z" fill="white"/>
<path d="M75.8325 20.9842C75.6338 20.976 75.4682 21.1241 75.46 21.3215C75.46 21.3297 75.46 21.3297 75.46 21.3379C75.46 21.5271 75.609 21.6834 75.7994 21.6916C75.9981 21.6999 76.1637 21.5518 76.172 21.3544C76.1803 21.157 76.0313 20.9924 75.8325 20.9842Z" fill="white"/>
<path d="M76.6605 20.9842C76.4618 20.976 76.2962 21.1241 76.288 21.3215C76.288 21.3297 76.288 21.3297 76.288 21.3379C76.288 21.5271 76.437 21.6834 76.6274 21.6916C76.8261 21.6999 76.9917 21.5518 77 21.3544C77.0083 21.157 76.851 20.9924 76.6605 20.9842Z" fill="white"/>
<path d="M72.1647 22.1442C72.1647 22.1525 72.1647 22.1525 72.1647 22.1607C72.1647 22.3499 72.3138 22.5062 72.5042 22.5144C72.7029 22.5226 72.8685 22.3746 72.8768 22.1771C72.8851 21.9797 72.736 21.8152 72.5373 21.807C72.3386 21.7987 72.173 21.9468 72.1647 22.1442Z" fill="white"/>
<path d="M73.7047 22.1686C73.713 21.9712 73.564 21.8066 73.3653 21.7984C73.1665 21.7902 73.001 21.9383 72.9927 22.1357C72.9927 22.1439 72.9927 22.1439 72.9927 22.1521C72.9927 22.3413 73.1417 22.4976 73.3321 22.5058C73.5308 22.5223 73.6964 22.366 73.7047 22.1686Z" fill="white"/>
<path d="M74.5244 22.1686C74.5327 21.9712 74.3837 21.8066 74.185 21.7984C73.9862 21.7902 73.8207 21.9383 73.8124 22.1357C73.8124 22.1439 73.8124 22.1439 73.8124 22.1521C73.8124 22.3413 73.9614 22.4976 74.1518 22.5058C74.3505 22.5223 74.5161 22.366 74.5244 22.1686Z" fill="white"/>
<path d="M74.9798 22.5144C75.1785 22.5226 75.3441 22.3746 75.3524 22.1771C75.3607 21.9797 75.2116 21.8152 75.0129 21.807C74.8142 21.7987 74.6486 21.9468 74.6403 22.1442C74.6403 22.1525 74.6403 22.1525 74.6403 22.1607C74.632 22.3499 74.7894 22.5062 74.9798 22.5144Z" fill="white"/>
<path d="M75.8325 21.807C75.6338 21.7987 75.4682 21.9468 75.46 22.1442C75.46 22.1525 75.46 22.1525 75.46 22.1607C75.46 22.3499 75.609 22.5062 75.7994 22.5144C75.9981 22.5226 76.1637 22.3746 76.172 22.1771C76.1803 21.9797 76.0313 21.8152 75.8325 21.807Z" fill="white"/>
<path d="M72.9927 22.9582C72.9927 22.9664 72.9927 22.9664 72.9927 22.9746C72.9927 23.1638 73.1417 23.3201 73.3321 23.3284C73.5308 23.3366 73.6964 23.1885 73.7047 22.9911C73.713 22.7937 73.564 22.6292 73.3653 22.6209C73.1665 22.6127 73.001 22.7608 72.9927 22.9582Z" fill="white"/>
<path d="M74.185 22.6209C73.9862 22.6127 73.8207 22.7608 73.8124 22.9582C73.8124 22.9664 73.8124 22.9664 73.8124 22.9746C73.8124 23.1638 73.9614 23.3201 74.1518 23.3284C74.3505 23.3366 74.5161 23.1885 74.5244 22.9911C74.5327 22.7937 74.3837 22.6292 74.185 22.6209Z" fill="white"/>
<path d="M75.0129 22.6209C74.8142 22.6127 74.6486 22.7608 74.6403 22.9582C74.6403 22.9664 74.6403 22.9664 74.6403 22.9746C74.6403 23.1638 74.7893 23.3201 74.9798 23.3284C75.1785 23.3366 75.3441 23.1885 75.3523 22.9911C75.3606 22.7937 75.2033 22.6292 75.0129 22.6209Z" fill="white"/>
<path d="M73.8124 23.7726C73.8124 23.7809 73.8124 23.7809 73.8124 23.7891C73.8124 23.9783 73.9614 24.1346 74.1518 24.1428C74.3505 24.151 74.5161 24.0029 74.5244 23.8055C74.5327 23.6081 74.3837 23.4436 74.185 23.4354C73.9862 23.4271 73.8207 23.5834 73.8124 23.7726Z" fill="white"/>
<path d="M35.1468 24.0028C35.0888 23.937 34.9812 23.937 34.9149 23.9946C32.0419 26.4459 34.0622 27.9594 34.0622 27.9594C35.7926 29.5141 37.879 28.2227 38.4586 27.8032C38.4669 27.8032 38.4669 27.7949 38.4752 27.7867C38.5497 27.7209 38.5497 27.6057 38.4834 27.5399L35.1468 24.0028Z" fill="white"/>
<path d="M38.0528 14.0907C37.821 14.0003 37.5643 14.0085 37.3491 14.1236C35.8505 14.8969 36.3886 15.9744 36.9268 16.6243C37.2 16.9698 37.6968 17.0274 38.0528 16.7641C40.0979 15.193 38.7649 14.3786 38.0528 14.0907Z" fill="white"/>
<path d="M43.6912 33.4051L42.143 31.7928C42.027 31.6694 41.8366 31.6612 41.7041 31.7681C40.9341 32.418 38.1357 34.3017 32.9112 32.8457C32.9112 32.8457 21.3861 29.5142 32.5966 20.6221C32.7374 20.5069 32.7705 20.3013 32.6629 20.1532C31.6942 18.8864 27.9435 13.2682 35.7346 10.5125C35.7677 10.4961 35.8091 10.4961 35.8422 10.4961H29.9223C29.9058 10.4961 29.8975 10.4961 29.8809 10.4961C29.8727 10.4961 29.8727 10.4961 29.8644 10.4961C29.8395 10.4961 29.8147 10.5043 29.7899 10.5043C29.6739 10.529 29.5746 10.5866 29.4918 10.6688L24.2508 15.9334C24.019 16.1719 23.6381 16.1719 23.398 15.9498C23.3898 15.9416 23.3815 15.9334 23.3815 15.9334L22.9013 15.4316L18.5876 10.965C18.2978 10.6688 17.9087 10.4961 17.4864 10.4961H11.0284C10.9953 10.4961 10.9539 10.5043 10.9207 10.5043C10.6227 10.5619 10.4074 10.8251 10.4074 11.1377V32.8704C10.3991 33.2159 10.6806 33.5038 11.0284 33.512H11.0946H18.4469C18.7946 33.5038 19.0761 33.2159 19.0678 32.8704V25.6234V24.8255C19.0513 24.4882 19.3245 24.2003 19.664 24.1839C19.813 24.1757 19.9537 24.225 20.0697 24.3155L23.6713 27.2192C23.9196 27.4166 24.2757 27.392 24.4909 27.1699L25.8405 25.7797L26.6105 24.99C26.8506 24.7515 27.2397 24.7432 27.4799 24.9818C27.604 25.1052 27.6703 25.2697 27.662 25.4424V32.8704C27.6537 33.2159 27.9352 33.5038 28.283 33.512H28.4154H43.8982C43.8237 33.5038 43.7492 33.4709 43.6912 33.4051Z" fill="white"/>
<path d="M68.679 10.4961H61.9064C61.8484 10.4961 61.7905 10.5043 61.7408 10.5208C61.6497 10.5454 61.5586 10.5948 61.4924 10.6606L55.7712 15.9992C55.5477 16.213 55.1834 16.2213 54.9515 16.0074L54.7445 15.8264L54.2892 15.4151L49.1807 10.8663C48.9157 10.6277 48.568 10.4961 48.212 10.4961H40.2802C40.3133 10.4961 40.3547 10.5043 40.3878 10.5125C41.1247 10.784 49.8099 14.1484 41.4062 20.8442C41.2571 20.9594 41.2323 21.1732 41.3482 21.3295L42.8385 23.1968C42.8468 23.2132 42.8634 23.2297 42.8799 23.2379C43.0124 23.3531 43.2111 23.3448 43.327 23.2132L45.281 21.0745C45.339 21.0087 45.43 20.9676 45.5128 20.9676H50.6544C50.729 20.9676 50.7952 21.0005 50.8532 21.0416C51.0022 21.1568 51.0187 21.3706 50.9028 21.5187L46.4236 27.1616C46.3242 27.285 46.3242 27.4578 46.4236 27.5894L50.7869 33.1336L50.8366 33.1912C50.8863 33.1007 50.9194 32.9938 50.9111 32.8786V26.1828V25.5C50.8946 25.1628 51.1678 24.8749 51.5072 24.8584C51.648 24.8502 51.7887 24.8995 51.9047 24.9818L54.8687 27.285C55.1171 27.4742 55.4649 27.4495 55.6801 27.2274L56.5743 26.2979L58.0067 24.809C58.2468 24.5705 58.6359 24.5623 58.876 24.8008C59.0002 24.9242 59.0665 25.0887 59.0582 25.2697V32.8621C59.0499 33.2076 59.3314 33.4955 59.6792 33.5038H60.4906H68.6542C69.002 33.4955 69.2835 33.2076 69.2752 32.8621V11.1377C69.3083 10.7922 69.0268 10.5043 68.679 10.4961Z" fill="white"/>
</g>
<defs>
<clipPath id="clip0">
<rect width="77" height="44" fill="white"/>
</clipPath>
</defs>
</svg>
