<svg width="69" height="40" viewBox="0 0 69 40" fill="none" xmlns="http://www.w3.org/2000/svg">
<path d="M13.4745 39.6927H55.5429C61.9385 39.6927 67.147 34.2691 67.147 27.6064V23.4144H65.8041V27.6064C65.8041 33.4975 61.204 38.2905 55.5429 38.2905H13.4745C7.8208 38.2905 3.2133 33.4975 3.2133 27.6064V23.4144H1.87038V27.6064C1.8778 34.2691 7.07886 39.6927 13.4745 39.6927Z" fill="#002D64"/>
<path d="M1.8778 17.3838H3.22073V12.0789C3.22073 6.18785 7.8208 1.39486 13.4819 1.39486H55.5503C61.204 1.39486 65.8115 6.18785 65.8115 12.0789V17.3838H67.147V12.0789C67.147 5.42364 61.9385 0 55.5429 0H13.4745C7.07886 0 1.87038 5.42364 1.87038 12.0863L1.8778 17.3838Z" fill="#0088CD"/>
<path d="M59.0517 30.2241H60.402C61.2775 30.2093 61.9675 29.4821 61.9453 28.6141V11.2302C61.9601 10.466 61.4185 9.79826 60.6691 9.64245L59.111 9.46439" fill="#0088CD"/>
<path d="M52.2551 22.8298L48.6122 25.7976C48.5009 25.8867 48.3451 25.8718 48.2486 25.7679L47.0466 24.5066L51.9138 21.1753C52.0325 21.0788 52.2032 21.1011 52.2996 21.2198C52.3442 21.2717 52.3664 21.3385 52.359 21.4053V22.6073C52.359 22.6889 52.3219 22.7705 52.2551 22.8298Z" fill="#0088CD"/>
<path d="M45.8385 22.8463V29.8948C45.8385 30.0729 45.6975 30.2213 45.5194 30.2287H43.531L44.2062 21.815C44.1987 21.6369 44.3323 21.4959 44.5104 21.4885C44.5994 21.4885 44.6884 21.5182 44.7478 21.585L45.742 22.6163C45.8014 22.6756 45.8385 22.7573 45.8385 22.8463Z" fill="#0088CD"/>
<path d="M23.719 23.3482L20.5361 25.7225C20.41 25.8115 20.2393 25.7892 20.1354 25.6779L19.0967 24.5576L23.3555 21.7679C23.4965 21.664 23.6894 21.6863 23.8007 21.8272C23.8452 21.8866 23.8674 21.9534 23.8674 22.0276V23.0737C23.86 23.185 23.8081 23.2889 23.719 23.3482Z" fill="#0088CD"/>
<path d="M18.1516 23.236L16.9644 21.945C16.6751 21.6408 16.0667 22.1379 16.0667 22.5682L14.7757 30.2251H17.8325C18.0922 30.2177 18.2999 30.0025 18.2999 29.7428V23.9186C18.2999 23.3176 18.2406 23.325 18.1516 23.236Z" fill="#0088CD"/>
<path d="M19.3002 14.6951L13.5204 9.46439L15.5905 9.76117C15.7834 9.79084 15.9615 9.87988 16.1024 10.006L20.3538 13.9012L19.4783 14.6877C19.4264 14.7396 19.3522 14.7396 19.3002 14.6951Z" fill="#0088CD"/>
<path d="M42.2149 9.46439L47.6979 14.8583C47.7424 14.9029 47.8166 14.9029 47.8611 14.8583L48.5363 14.1535C48.5808 14.1016 48.5808 14.0274 48.5363 13.9754L44.4704 10.0283C44.3071 9.87246 44.1068 9.76858 43.8842 9.72407L42.2149 9.46439Z" fill="#0088CD"/>
<path d="M68.6958 21.1915C68.5177 21.1841 68.3693 21.3176 68.3619 21.4957C68.3545 21.6738 68.4881 21.8222 68.6661 21.8296C68.8442 21.837 68.9926 21.7035 69 21.5254C69 21.518 69 21.518 69 21.5106C69 21.3325 68.8664 21.1915 68.6958 21.1915Z" fill="#002D64"/>
<path d="M67.9539 21.1915C67.7758 21.1841 67.6274 21.3176 67.62 21.4957C67.6126 21.6738 67.7461 21.8222 67.9242 21.8296C68.1022 21.837 68.2506 21.7035 68.2581 21.5254C68.2581 21.518 68.2581 21.518 68.2581 21.5106C68.2655 21.3325 68.1319 21.1915 67.9539 21.1915Z" fill="#002D64"/>
<path d="M67.2193 21.1915C67.0413 21.1841 66.8929 21.3176 66.8854 21.4957C66.878 21.6738 67.0116 21.8222 67.1896 21.8296C67.3677 21.837 67.5161 21.7035 67.5235 21.5254C67.5235 21.518 67.5235 21.518 67.5235 21.5106C67.5235 21.3325 67.39 21.1915 67.2193 21.1915Z" fill="#002D64"/>
<path d="M66.4774 21.1915C66.2993 21.1841 66.1509 21.3176 66.1435 21.4957C66.1361 21.6738 66.2696 21.8222 66.4477 21.8296C66.6258 21.837 66.7742 21.7035 66.7816 21.5254C66.7816 21.518 66.7816 21.518 66.7816 21.5106C66.789 21.3325 66.648 21.1915 66.4774 21.1915Z" fill="#002D64"/>
<path d="M65.7428 21.1915C65.5648 21.1841 65.4164 21.3176 65.409 21.4957C65.4015 21.6738 65.5351 21.8222 65.7132 21.8296C65.8912 21.837 66.0396 21.7035 66.047 21.5254C66.047 21.518 66.047 21.518 66.047 21.5106C66.047 21.3325 65.9135 21.1915 65.7428 21.1915Z" fill="#002D64"/>
<path d="M65.0009 21.1915C64.8228 21.1841 64.6744 21.3176 64.667 21.4957C64.6596 21.6738 64.7931 21.8222 64.9712 21.8296C65.1493 21.837 65.2977 21.7035 65.3051 21.5254C65.3051 21.518 65.3051 21.518 65.3051 21.5106C65.3125 21.3325 65.1715 21.1915 65.0009 21.1915Z" fill="#002D64"/>
<path d="M64.259 21.1915C64.0809 21.1841 63.9325 21.3176 63.9251 21.4957C63.9177 21.6738 64.0512 21.8222 64.2293 21.8296C64.4073 21.837 64.5557 21.7035 64.5632 21.5254C64.5632 21.518 64.5632 21.518 64.5632 21.5106C64.5706 21.3325 64.437 21.1915 64.259 21.1915Z" fill="#002D64"/>
<path d="M67.9539 20.4496C67.7758 20.4422 67.6274 20.5757 67.62 20.7538C67.6126 20.9318 67.7461 21.0802 67.9242 21.0877C68.1022 21.0951 68.2506 20.9615 68.2581 20.7835C68.2581 20.776 68.2581 20.776 68.2581 20.7686C68.2655 20.598 68.1319 20.457 67.9539 20.4496Z" fill="#002D64"/>
<path d="M67.2193 20.4496C67.0413 20.4422 66.8929 20.5757 66.8854 20.7538C66.878 20.9318 67.0116 21.0802 67.1896 21.0877C67.3677 21.0951 67.5161 20.9615 67.5235 20.7835C67.5235 20.776 67.5235 20.776 67.5235 20.7686C67.5235 20.598 67.39 20.457 67.2193 20.4496Z" fill="#002D64"/>
<path d="M66.4774 20.4496C66.2993 20.4422 66.1509 20.5757 66.1435 20.7538C66.1361 20.9318 66.2696 21.0802 66.4477 21.0877C66.6258 21.0951 66.7742 20.9615 66.7816 20.7835C66.7816 20.776 66.7816 20.776 66.7816 20.7686C66.789 20.598 66.648 20.457 66.4774 20.4496Z" fill="#002D64"/>
<path d="M65.7428 20.4496C65.5648 20.4422 65.4164 20.5757 65.409 20.7538C65.4015 20.9318 65.5351 21.0802 65.7132 21.0877C65.8912 21.0951 66.0396 20.9615 66.047 20.7835C66.047 20.776 66.047 20.776 66.047 20.7686C66.047 20.598 65.9135 20.457 65.7428 20.4496Z" fill="#002D64"/>
<path d="M65.0009 20.4496C64.8228 20.4422 64.6744 20.5757 64.667 20.7538C64.6596 20.9318 64.7931 21.0802 64.9712 21.0877C65.1493 21.0951 65.2977 20.9615 65.3051 20.7835C65.3051 20.776 65.3051 20.776 65.3051 20.7686C65.3125 20.598 65.1715 20.457 65.0009 20.4496Z" fill="#002D64"/>
<path d="M67.2193 19.715C67.0413 19.7076 66.8929 19.8412 66.8854 20.0192C66.878 20.1973 67.0116 20.3457 67.1896 20.3531C67.3677 20.3605 67.5161 20.227 67.5235 20.0489C67.5235 20.0415 67.5235 20.0415 67.5235 20.0341C67.5235 19.8634 67.39 19.7225 67.2193 19.715Z" fill="#002D64"/>
<path d="M66.4774 19.715C66.2993 19.7076 66.1509 19.8412 66.1435 20.0192C66.1361 20.1973 66.2696 20.3457 66.4477 20.3531C66.6258 20.3605 66.7742 20.227 66.7816 20.0489C66.7816 20.0415 66.7816 20.0415 66.7816 20.0341C66.789 19.8634 66.648 19.7225 66.4774 19.715Z" fill="#002D64"/>
<path d="M65.7428 20.3531C65.5748 20.3531 65.4386 20.2103 65.4386 20.0341C65.4386 19.8579 65.5748 19.715 65.7428 19.715C65.9108 19.715 66.047 19.8579 66.047 20.0341C66.047 20.2103 65.9108 20.3531 65.7428 20.3531Z" fill="#002D64"/>
<path d="M66.4774 18.9805C66.2993 18.9731 66.1509 19.1067 66.1435 19.2847C66.1361 19.4628 66.2696 19.6112 66.4477 19.6186C66.6258 19.626 66.7742 19.4925 66.7816 19.3144C66.7816 19.307 66.7816 19.307 66.7816 19.2996C66.789 19.1289 66.648 18.9805 66.4774 18.9805Z" fill="#002D64"/>
<path d="M4.76361 19.5667C4.58554 19.5741 4.43715 19.4406 4.42973 19.2625C4.42231 19.0844 4.55586 18.936 4.73393 18.9286C4.912 18.9212 5.06039 19.0547 5.0678 19.2328C5.0678 19.2402 5.0678 19.2402 5.0678 19.2476C5.07522 19.4183 4.93425 19.5667 4.76361 19.5667Z" fill="#0088CD"/>
<path d="M4.02166 19.5667C3.8436 19.5741 3.69521 19.4405 3.68779 19.2625C3.68037 19.0844 3.81392 18.936 3.99199 18.9286C4.17005 18.9212 4.31844 19.0547 4.32586 19.2328C4.32586 19.2402 4.32586 19.2402 4.32586 19.2476C4.33328 19.4183 4.19973 19.5667 4.02166 19.5667Z" fill="#0088CD"/>
<path d="M3.28712 19.5667C3.10906 19.5741 2.96067 19.4405 2.95325 19.2625C2.94583 19.0844 3.07938 18.936 3.25745 18.9286C3.43551 18.9212 3.5839 19.0547 3.59132 19.2328C3.59132 19.2402 3.59132 19.2402 3.59132 19.2476C3.59132 19.4183 3.45777 19.5667 3.28712 19.5667Z" fill="#0088CD"/>
<path d="M2.54518 19.5667C2.36711 19.5741 2.21872 19.4405 2.2113 19.2625C2.20388 19.0844 2.33743 18.936 2.5155 18.9286C2.69357 18.9212 2.84196 19.0547 2.84938 19.2328C2.84938 19.2402 2.84938 19.2402 2.84938 19.2476C2.85679 19.4183 2.71582 19.5667 2.54518 19.5667Z" fill="#0088CD"/>
<path d="M1.81066 19.5667C1.63259 19.5741 1.4842 19.4405 1.47678 19.2625C1.46936 19.0844 1.60291 18.936 1.78098 18.9286C1.95904 18.9212 2.10743 19.0547 2.11485 19.2328C2.11485 19.2402 2.11485 19.2402 2.11485 19.2476C2.11485 19.4183 1.9813 19.5667 1.81066 19.5667Z" fill="#0088CD"/>
<path d="M1.06871 19.5667C0.89064 19.5741 0.74225 19.4405 0.73483 19.2625C0.727411 19.0844 0.86096 18.936 1.03903 18.9286C1.21709 18.9212 1.36548 19.0547 1.3729 19.2328C1.3729 19.2402 1.3729 19.2402 1.3729 19.2476C1.38032 19.4183 1.23936 19.5667 1.06871 19.5667Z" fill="#0088CD"/>
<path d="M0.33418 19.5667C0.156113 19.5741 0.00772321 19.4405 0.000303745 19.2625C-0.00711572 19.0844 0.126438 18.936 0.304505 18.9286C0.482573 18.9212 0.630962 19.0547 0.638382 19.2328C0.638382 19.2402 0.638382 19.2402 0.638382 19.2476C0.638382 19.4183 0.504829 19.5667 0.33418 19.5667Z" fill="#0088CD"/>
<path d="M4.02166 20.3012C3.8436 20.3086 3.69521 20.1751 3.68779 19.997C3.68037 19.8189 3.81392 19.6705 3.99199 19.6631C4.17005 19.6557 4.31844 19.7892 4.32586 19.9673C4.32586 19.9747 4.32586 19.9747 4.32586 19.9821C4.33328 20.1602 4.19973 20.3012 4.02166 20.3012Z" fill="#0088CD"/>
<path d="M3.28712 20.3012C3.10906 20.3086 2.96067 20.1751 2.95325 19.997C2.94583 19.8189 3.07938 19.6705 3.25745 19.6631C3.43551 19.6557 3.5839 19.7892 3.59132 19.9673C3.59132 19.9747 3.59132 19.9747 3.59132 19.9821C3.59132 20.1602 3.45777 20.3012 3.28712 20.3012Z" fill="#0088CD"/>
<path d="M2.54518 20.3012C2.36711 20.3086 2.21872 20.1751 2.2113 19.997C2.20388 19.8189 2.33743 19.6705 2.5155 19.6631C2.69357 19.6557 2.84196 19.7892 2.84938 19.9673C2.84938 19.9747 2.84938 19.9747 2.84938 19.9821C2.8568 20.1602 2.72324 20.3012 2.54518 20.3012Z" fill="#0088CD"/>
<path d="M1.81066 20.3012C1.63259 20.3086 1.4842 20.1751 1.47678 19.997C1.46936 19.8189 1.60291 19.6705 1.78098 19.6631C1.95904 19.6557 2.10743 19.7892 2.11485 19.9673C2.11485 19.9747 2.11485 19.9747 2.11485 19.9821C2.11485 20.1602 1.9813 20.3012 1.81066 20.3012Z" fill="#0088CD"/>
<path d="M1.06871 20.3012C0.89064 20.3086 0.74225 20.1751 0.73483 19.997C0.727411 19.8189 0.86096 19.6705 1.03903 19.6631C1.21709 19.6557 1.36548 19.7892 1.3729 19.9673C1.3729 19.9747 1.3729 19.9747 1.3729 19.9821C1.38032 20.1602 1.23936 20.3012 1.06871 20.3012Z" fill="#0088CD"/>
<path d="M3.28712 21.0431C3.10906 21.0505 2.96067 20.917 2.95325 20.7389C2.94583 20.5609 3.07938 20.4125 3.25745 20.405C3.43551 20.3976 3.5839 20.5312 3.59132 20.7092C3.59132 20.7167 3.59132 20.7167 3.59132 20.7241C3.59132 20.8947 3.45777 21.0357 3.28712 21.0431Z" fill="#0088CD"/>
<path d="M2.54518 21.0431C2.36711 21.0505 2.21872 20.917 2.2113 20.7389C2.20388 20.5609 2.33743 20.4125 2.5155 20.405C2.69357 20.3976 2.84196 20.5312 2.84938 20.7092C2.84938 20.7167 2.84938 20.7167 2.84938 20.7241C2.85679 20.8947 2.71582 21.0357 2.54518 21.0431Z" fill="#0088CD"/>
<path d="M1.81066 21.0431C1.63259 21.0505 1.4842 20.917 1.47678 20.7389C1.46936 20.5609 1.60291 20.4125 1.78098 20.405C1.95904 20.3976 2.10743 20.5312 2.11485 20.7092C2.11485 20.7167 2.11485 20.7167 2.11485 20.7241C2.11485 20.8947 1.9813 21.0357 1.81066 21.0431Z" fill="#0088CD"/>
<path d="M2.54518 21.7777C2.36711 21.7851 2.21872 21.6516 2.2113 21.4735C2.20388 21.2954 2.33743 21.147 2.5155 21.1396C2.69357 21.1322 2.84196 21.2657 2.84938 21.4438C2.84938 21.4512 2.84938 21.4512 2.84938 21.4586C2.85679 21.6293 2.71582 21.7703 2.54518 21.7777Z" fill="#0088CD"/>
<path d="M59.6703 10.043V29.6453C59.6777 29.9569 59.4255 30.2166 59.1138 30.224H52.466C52.1544 30.2166 51.9021 29.9569 51.9095 29.6453V22.389C51.9244 22.0848 51.6795 21.8252 51.3753 21.8103C51.2418 21.8029 51.1156 21.8474 51.0118 21.929L47.7843 24.5481C47.5617 24.7262 47.2427 24.7039 47.0498 24.5036L45.1504 22.53C44.9352 22.3148 44.5865 22.3074 44.3713 22.5226C44.26 22.6339 44.2007 22.7823 44.2081 22.9381V29.6453C44.2155 29.9569 43.9633 30.2166 43.6516 30.224H23.9381C23.6265 30.2166 23.3742 29.9569 23.3816 29.6453V22.9974C23.3965 22.6932 23.1516 22.4335 22.8474 22.4187C22.7213 22.4113 22.5951 22.4558 22.4913 22.53L19.8351 24.6075C19.6125 24.7781 19.3009 24.7558 19.108 24.5555L17.0231 22.3816C16.8079 22.1664 16.4592 22.159 16.2441 22.3742C16.1328 22.4855 16.0734 22.6339 16.0808 22.7971V29.6453C16.0883 29.9569 15.836 30.2166 15.5244 30.224H7.47424C7.16262 30.2166 6.91036 29.9569 6.91777 29.6453V10.043C6.91036 9.7314 7.16262 9.47171 7.47424 9.46429H13.5211C13.6621 9.46429 13.7956 9.51623 13.8921 9.61268L19.019 14.4279C19.2267 14.6208 19.5457 14.6283 19.7535 14.4353L24.9249 9.79817C25.1623 9.58301 25.4739 9.46429 25.7929 9.46429H42.1826C42.331 9.46429 42.4645 9.52365 42.5684 9.62752L47.2649 14.376C47.4727 14.5912 47.814 14.5912 48.0291 14.3908C48.0365 14.3834 48.044 14.376 48.044 14.376L52.3473 9.89462C52.6069 9.62752 52.9557 9.47171 53.3341 9.47171H59.1213C59.4255 9.47171 59.6777 9.7314 59.6703 10.043Z" fill="#002D64"/>
<path d="M23.3796 19.4061C23.2757 19.2725 23.298 19.0871 23.4241 18.9758C23.4761 18.9312 23.5354 18.909 23.6022 18.909H28.2097C28.2913 18.909 28.3655 18.9461 28.4174 19.0054L30.1684 20.9345C30.2723 21.0532 30.4504 21.0606 30.5691 20.9568C30.5839 20.9419 30.5913 20.9345 30.6062 20.9197L31.9417 19.2354C32.0456 19.1019 32.0233 18.909 31.8897 18.7977C24.3664 12.7582 32.142 9.72367 32.8023 9.47883C32.832 9.47141 32.8617 9.46399 32.8988 9.46399H36.8756C36.9127 9.46399 36.9424 9.47141 36.9721 9.47883C43.9464 11.9644 40.5928 17.0393 39.7247 18.1745C39.6283 18.308 39.6505 18.4935 39.7841 18.5974C49.8375 26.6178 39.5021 29.6227 39.5021 29.6227C34.8204 30.936 32.3127 29.2369 31.6226 28.6508C31.5114 28.5543 31.3333 28.5617 31.2294 28.673L29.842 30.1272C29.79 30.1866 29.7158 30.2163 29.6416 30.2163H23.9286C23.7283 30.2014 23.5503 30.0901 23.4464 29.9195L27.3935 24.8743C27.4826 24.763 27.4826 24.6072 27.3935 24.4884L23.3796 19.4061ZM34.5162 25.0672C34.5237 25.0746 34.5237 25.0746 34.5311 25.082C35.0505 25.4604 36.9202 26.6253 38.4708 25.223C38.4708 25.223 40.2812 23.8578 37.7066 21.6468C37.6473 21.5948 37.5582 21.6023 37.4989 21.6542L34.5088 24.8446C34.4495 24.9039 34.4569 25.0078 34.5162 25.0672ZM34.9021 15.1251C35.2137 15.3625 35.6663 15.3031 35.9111 14.9989C36.3934 14.4202 36.8756 13.4408 35.5327 12.7434C35.3398 12.6395 35.1024 12.6321 34.9021 12.7137C34.264 12.9734 33.062 13.7079 34.9021 15.1251Z" fill="white" stroke="#1A2969" stroke-width="0.01" stroke-miterlimit="10"/>
</svg>
